<?xml version="1.0" encoding="utf-8"?>
<!-- Generator: Adobe Illustrator 26.5.0, SVG Export Plug-In . SVG Version: 6.00 Build 0)  -->
<svg version="1.1" id="Layer_1" xmlns="http://www.w3.org/2000/svg" xmlns:xlink="http://www.w3.org/1999/xlink" x="0px" y="0px"
	 viewBox="0 0 1176 368" style="enable-background:new 0 0 1176 368;" xml:space="preserve">
<style type="text/css">
	.st0{fill:#FFFFFF;}
	.st1{fill-rule:evenodd;clip-rule:evenodd;fill:#FFFFFF;}
	.st2{fill-rule:evenodd;clip-rule:evenodd;fill:#00EAE6;}
	.st3{fill-rule:evenodd;clip-rule:evenodd;fill:#DA291C;}
	.st4{fill-rule:evenodd;clip-rule:evenodd;fill:#471CDA;}
	.st5{fill-rule:evenodd;clip-rule:evenodd;fill:#2E1CDA;}
	.st6{fill:none;}
</style>
<path id="Spearhead" class="st0" d="M442.4,185.4c23.8,0,47.9-11.9,47.9-36.2s-21.2-32.1-40.4-35.5l-15.5-2.8
	c-9.5-1.8-16.5-6.4-16.5-14.7c0-10.6,12.1-14.7,22.8-14.7s23.1,4.6,24.9,18.4h22.5c-1.1-22.7-22-37-46.5-37
	c-21.8,0-47.1,10.4-47.1,34.2c0,20.5,16.1,30.5,35.4,34.2l15,2.8c12.5,2.3,21.8,6,21.8,16.1c0,12.7-13.2,16.5-23.6,16.5
	c-14,0-26.1-5.2-28.7-22.5H392C394.1,169.8,413.4,185.4,442.4,185.4L442.4,185.4z M519.7,213.8v-41.6c5.5,9.6,16,13.2,25.1,13.2
	c20.9,0,38.3-17.9,38.3-46s-17-45.8-38.1-45.8c-11.1,0-20.5,5.1-25.3,13.2V93.6h-22.5v120.2L519.7,213.8L519.7,213.8z M539.5,168.1
	c-12.4,0-20.5-10.8-20.5-28.7s8.2-28.5,20.5-28.5c11.6,0,20,11.6,20,28.7S551,168.1,539.5,168.1L539.5,168.1z M631,185.4
	c23.8,0,36.7-14.5,41.4-27.6h-23.2c-4.6,7.7-11.6,10.1-18.4,10.1c-10.6,0-21-7.3-22.2-22.3h64.7c1-31-16-52-43-52s-44,19.4-44,45.5
	S602.8,185.4,631,185.4L631,185.4z M650.6,130.2H609c1.8-14.7,12.7-20.1,21.2-20.1C639.6,110.1,650.1,115.3,650.6,130.2z M709,185.4
	c13.2,0,22.5-3.9,28.7-13c0.3,4.2,0.8,9.1,1.5,11.9h20.7c-1.6-7.3-2.6-16.2-2.6-30c0-2.3,0-4.9,0.1-7.5v-0.9c0-0.1,0-0.3,0-0.5
	l0-0.9c0.1-5.6,0.2-10.8,0.2-12.5c0-29.7-17-38.6-37.8-38.6c-22.5,0-36.8,12.7-38.5,30h21c0.5-9.6,7.7-14.2,16.3-14.2
	c9.1,0,16.5,4.7,16.5,18.3v1.5c-34.4,3.9-57.7,10.1-57.7,30.8C677.4,175.7,692.2,185.4,709,185.4L709,185.4z M715.7,170.1
	c-10.1,0-15.2-5.2-15.2-11.6c0-9.8,10.1-12.7,35.2-15.3v6.5C735.8,162.4,729.7,170.1,715.7,170.1L715.7,170.1z M791.9,183.3v-46
	c0-16.5,7.3-20.5,18.4-20.5c3.3,0,15,0.2,18.3,0.5V96.1c-1.5-0.2-12.4-0.3-13.9-0.3c-10.1,0-18.1,4.4-23.2,15.2V95.6h-22.2v87.7
	L791.9,183.3L791.9,183.3z M846.8,184.3v-46.6c0-13.9,3.3-25.9,18.1-25.9c12.7,0,15.2,9.8,15.2,21.2v51.4h22.5V128
	c0-21.5-9.3-34.4-30.3-34.4c-10.8,0-20.4,4.7-25.4,13.5V64.1h-22.5v120.2L846.8,184.3L846.8,184.3z M953.5,185.4
	c23.8,0,36.7-14.5,41.4-27.6h-23.2c-4.6,7.7-11.6,10.1-18.4,10.1c-10.6,0-21-7.3-22.2-22.3h64.7c1-31-16-52-43-52s-44,19.4-44,45.5
	S925.3,185.4,953.5,185.4L953.5,185.4z M973.1,130.2h-41.6c1.8-14.7,12.7-20.1,21.2-20.1C962.2,110.1,972.6,115.3,973.1,130.2z
	 M1031.5,185.4c13.2,0,22.5-3.9,28.7-13c0.3,4.2,0.8,9.1,1.5,11.9h20.7c-1.6-7.3-2.6-16.2-2.6-30c0-2.3,0-4.9,0.1-7.5v-0.9
	c0.1-6.1,0.3-12,0.3-13.9c0-29.7-16.9-38.6-37.8-38.6c-22.5,0-36.8,12.7-38.5,30h21c0.5-9.6,7.7-14.2,16.3-14.2
	c9.1,0,16.5,4.7,16.5,18.3v1.5c-34.4,3.9-57.7,10.1-57.7,30.8C999.9,175.7,1014.8,185.4,1031.5,185.4L1031.5,185.4z M1038.2,170.1
	c-10.1,0-15.2-5.2-15.2-11.6c0-9.8,10.1-12.7,35.2-15.3v6.5C1058.3,162.4,1052.2,170.1,1038.2,170.1L1038.2,170.1z M1124.4,185.4
	c9.1,0,19.7-3.6,25.3-13.2v12.1h22.5V64.1h-22.5v42.7c-4.7-8.1-14.2-13.2-25.3-13.2c-21.2,0-38.1,18.3-38.1,45.8
	S1103.5,185.4,1124.4,185.4z M1129.9,168.1c-11.6,0-20.1-11.4-20.1-28.5s8.5-28.7,20.1-28.7c12.4,0,20.5,10.9,20.5,28.5
	S1142.3,168.2,1129.9,168.1L1129.9,168.1z"/>
<path id="InnovatingagainstAMR" class="st0" d="M397.6,304v-60.2h-5.6V304H397.6z M412.8,304v-24.8c0-9.5,5.8-15.9,13.5-15.9
	c9,0,11.2,5.6,11.2,14V304h5.1v-28.1c0-11-4.5-17.3-15-17.3c-8.3,0-12.7,4.1-14.9,8.3v-7.5h-5.1V304L412.8,304L412.8,304z
	 M455.6,304v-24.8c0-9.5,5.8-15.9,13.5-15.9c9,0,11.2,5.6,11.2,14V304h5.1v-28.1c0-11-4.5-17.3-15-17.3c-8.3,0-12.7,4.1-14.9,8.3
	v-7.5h-5.1V304L455.6,304L455.6,304z M510,305.1c10.7,0,20.2-7,20.2-23.2s-9.5-23.2-20.2-23.2s-20.2,7-20.2,23.2
	S499.3,305.1,510,305.1z M510,300.3c-8.5,0-14.7-5.7-14.7-18.5s6.1-18.5,14.7-18.5s14.8,5.7,14.8,18.5S518.5,300.3,510,300.3z
	 M551.6,304l16.6-44.6h-5.6l-13.5,37.5l-13.9-37.5h-5.8l17.1,44.6H551.6L551.6,304z M581.9,305.1c8.3,0,13.9-3.1,16.8-7.9l0.2,6.8
	h5.2c-0.2-4.8-0.5-9.2-0.5-14.3c0-3.6,0.1-7.6,0.1-13.8c0-13.3-6.9-17.6-17.3-17.6s-17.1,5.8-18.3,14.6h5.4c0.4-5.8,5-10,12.5-10
	c6.5,0,12.5,2.2,12.5,12.4v1.6c-21.5,2.2-31.5,5.9-31.5,16C567.2,300.3,573.6,305.1,581.9,305.1L581.9,305.1z M583.1,300.5
	c-5.9,0-10.2-3-10.2-7.7c0-7,7.8-9.4,26-11.4v2.2C598.9,296.3,591.4,300.5,583.1,300.5L583.1,300.5z M627.3,304v-4.6h-2.7
	c-5.9,0-6.1-1.1-6.1-6.7v-28.8h8.8v-4.5h-8.8v-10h-5.2v10h-7.4v4.5h7.4v29.5c0,8.7,1.8,10.6,9.5,10.6L627.3,304L627.3,304z M638,252
	v-8.2h-5.2v8.2H638z M638,304v-44.6h-5.2V304H638z M652.3,304v-24.8c0-9.5,5.8-15.9,13.5-15.9c9,0,11.2,5.6,11.2,14V304h5.2v-28.1
	c0-11-4.5-17.3-15-17.3c-8.3,0-12.7,4.1-14.9,8.3v-7.5h-5.2V304L652.3,304L652.3,304z M706.2,319.6c10.6,0,18.9-5.2,18.9-17.2v-43.1
	h-5.2v7.7c-3.1-5.4-8.5-8.5-15.1-8.5c-10.2,0-18.6,8.5-18.6,22.3s8.4,22.3,18.6,22.3c6.6,0,12-3,15.1-8.4v8.1
	c0,8.3-5.2,12.1-13.5,12.1c-7.5,0-11.5-3.9-12-8.6h-5.4C689.7,314.5,696.9,319.6,706.2,319.6L706.2,319.6z M705.8,298.7
	c-8.3,0-14.1-6.7-14.1-17.8s5.8-17.7,14.1-17.7c6.8,0,14.4,5.4,14.4,17.7S712.6,298.7,705.8,298.7z M761.8,305.1
	c8.3,0,13.9-3.1,16.8-7.9l0.2,6.8h5.2c-0.2-4.8-0.5-9.2-0.5-14.3c0-3.6,0.1-7.6,0.1-13.8c0-13.3-6.9-17.6-17.3-17.6
	s-17.1,5.8-18.3,14.6h5.4c0.4-5.8,5-10,12.5-10c6.5,0,12.5,2.2,12.5,12.4v1.6c-21.5,2.2-31.5,5.9-31.5,16
	C747.1,300.3,753.5,305.1,761.8,305.1L761.8,305.1z M763,300.5c-5.9,0-10.2-3-10.2-7.7c0-7,7.8-9.4,26-11.4v2.2
	C778.8,296.3,771.3,300.5,763,300.5L763,300.5z M807.3,319.6c10.6,0,18.9-5.2,18.9-17.2v-43.1H821v7.7c-3.1-5.4-8.5-8.5-15.1-8.5
	c-10.2,0-18.6,8.5-18.6,22.3s8.4,22.3,18.6,22.3c6.6,0,12-3,15.1-8.4v8.1c0,8.3-5.2,12.1-13.5,12.1c-7.5,0-11.5-3.9-12-8.6h-5.4
	C790.9,314.5,798.1,319.6,807.3,319.6L807.3,319.6z M807,298.7c-8.3,0-14.1-6.7-14.1-17.8s5.8-17.7,14.1-17.7
	c6.8,0,14.4,5.4,14.4,17.7S813.8,298.7,807,298.7z M846.7,305.1c8.3,0,13.9-3.1,16.8-7.9l0.2,6.8h5.2c-0.2-4.8-0.5-9.2-0.5-14.3
	c0-3.6,0.1-7.6,0.1-13.8c0-13.3-6.9-17.6-17.3-17.6s-17.1,5.8-18.3,14.6h5.4c0.4-5.8,5-10,12.5-10c6.5,0,12.5,2.2,12.5,12.4v1.6
	c-21.5,2.2-31.5,5.9-31.5,16C831.9,300.2,838.4,305.1,846.7,305.1L846.7,305.1z M847.8,300.5c-5.9,0-10.2-3-10.2-7.7
	c0-7,7.8-9.4,26-11.4v2.2C863.6,296.3,856.1,300.5,847.8,300.5L847.8,300.5z M881.1,252v-8.2H876v8.2H881.1z M881.1,304v-44.6H876
	V304H881.1z M895.4,304v-24.8c0-9.5,5.8-15.9,13.5-15.9c9,0,11.2,5.6,11.2,14V304h5.2v-28.1c0-11-4.5-17.3-15-17.3
	c-8.3,0-12.7,4.1-14.9,8.3v-7.5h-5.2V304L895.4,304L895.4,304z M948.5,305.1c9.7,0,17.8-4.7,17.8-13.6s-8.1-11-15.4-12.3l-6.3-1.2
	c-4.9-0.9-8.4-3.2-8.4-7.6c0-5.4,6.5-7.3,11.4-7.3c6.3,0,11.2,3.1,12.3,8.5h5.4c-1.1-7.1-7.6-13-17.2-13c-10,0-17.1,5.2-17.1,12.3
	s5.6,10.7,12.1,12l7,1.3c6.1,1.2,11,3,11,8.2c0,6-6.7,8.2-12.1,8.2c-6.9,0-12.5-3.1-13.5-10.2H930
	C931.3,300.5,939.3,305.1,948.5,305.1L948.5,305.1z M989.1,304v-4.6h-2.7c-5.8,0-6.1-1.1-6.1-6.4v-29.1h8.8v-4.5h-8.8v-10H975v10
	h-7.4v4.5h7.4v29.5c0,8.7,1.8,10.6,9.5,10.6H989.1z M1010.7,304l5.6-15.1h28.6l5.7,15.1h6.1l-22.9-60.2h-6.3l-22.8,60.2H1010.7
	L1010.7,304z M1043,283.7h-24.7l12.3-33L1043,283.7z M1066.2,304v-54.9l20.4,54.9h5.6l20.4-54.9V304h5.6v-60.2h-8.9l-19.8,53.9
	l-19.9-53.9h-9V304H1066.2L1066.2,304z M1134.7,304v-26.6h12.1c1.7,0,3.5,0,5.1-0.2l14.2,26.7h6.2l-14.6-27.4
	c8.4-1.7,13.7-6.1,13.7-16.3c0-14-10.2-16.5-24.6-16.5h-17.7V304H1134.7L1134.7,304z M1147.9,272.4h-13.2v-23.5h12.9
	c9.9,0,18,1,18,11.6S1157.6,272.3,1147.9,272.4L1147.9,272.4z"/>
<path id="Fill-1" class="st1" d="M288.7,51.8c0,4.2-3.4,7.5-7.5,7.5s-7.5-3.4-7.5-7.5s3.4-7.5,7.5-7.5S288.7,47.6,288.7,51.8"/>
<path id="Fill-3" class="st2" d="M272.6,27.6c0,4.7-3.8,8.6-8.5,8.6s-8.5-3.8-8.5-8.6s3.8-8.6,8.5-8.6S272.6,22.9,272.6,27.6"/>
<g id="Fill-5">
	<path id="path-1" class="st1" d="M22.1,258.9c0,2.5-2,4.5-4.5,4.5s-4.5-2-4.5-4.5s2-4.5,4.5-4.5S22.1,256.4,22.1,258.9"/>
	<path id="path-1-2" class="st1" d="M22.1,258.9c0,2.5-2,4.5-4.5,4.5s-4.5-2-4.5-4.5s2-4.5,4.5-4.5S22.1,256.4,22.1,258.9"/>
</g>
<path id="Fill-7" class="st3" d="M297.8,53.3c0,2.2-1.8,4-4,4s-4-1.8-4-4s1.8-4,4-4S297.8,51.1,297.8,53.3"/>
<path id="Fill-9" class="st1" d="M255.5,44.7c0,4.7-3.8,8.6-8.5,8.6s-8.5-3.8-8.5-8.6s3.8-8.6,8.5-8.6S255.5,40,255.5,44.7"/>
<path id="Fill-11" class="st2" d="M244.5,31.2c0,13.9-11.3,25.1-25.1,25.1S194.2,45,194.2,31.2S205.4,6,219.3,6
	C233.2,6,244.5,17.3,244.5,31.2"/>
<path id="Fill-13" class="st3" d="M273.6,61.3c0,3.3-2.7,6-6,6s-6-2.7-6-6s2.7-6,6-6S273.6,58,273.6,61.3"/>
<g id="Fill-15">
	<path id="path-2" class="st1" d="M279.7,31.7c0,3.1-2.5,5.5-5.5,5.5s-5.5-2.5-5.5-5.5s2.5-5.5,5.5-5.5S279.7,28.6,279.7,31.7"/>
	<path id="path-2-2" class="st1" d="M279.7,31.7c0,3.1-2.5,5.5-5.5,5.5s-5.5-2.5-5.5-5.5s2.5-5.5,5.5-5.5S279.7,28.6,279.7,31.7"/>
</g>
<path id="Fill-17" class="st1" d="M206.2,61.3c0,1.7-1.4,3-3,3s-3-1.3-3-3s1.4-3,3-3S206.2,59.7,206.2,61.3"/>
<path id="Fill-19" class="st2" d="M210.3,36.7c0,3.1-2.5,5.5-5.5,5.5s-5.5-2.5-5.5-5.5s2.5-5.5,5.5-5.5S210.3,33.6,210.3,36.7"/>
<path id="Fill-21" class="st3" d="M224.4,76.9c0,4.2-3.4,7.5-7.6,7.5s-7.6-3.4-7.6-7.5s3.4-7.5,7.6-7.5S224.4,72.8,224.4,76.9"/>
<g id="Fill-23">
	<path id="path-3" class="st1" d="M228.4,58.8c0,4.7-3.8,8.6-8.6,8.6s-8.6-3.8-8.6-8.6s3.8-8.6,8.6-8.6S228.4,54.1,228.4,58.8"/>
	<path id="path-3-2" class="st1" d="M228.4,58.8c0,4.7-3.8,8.6-8.6,8.6s-8.6-3.8-8.6-8.6s3.8-8.6,8.6-8.6S228.4,54.1,228.4,58.8"/>
</g>
<path id="Fill-25" class="st1" d="M271.6,76.4c0,3.9-3.1,7-7,7s-7-3.1-7-7s3.1-7,7-7S271.6,72.5,271.6,76.4"/>
<path id="Fill-27" class="st2" d="M251.5,76.9c0,6.9-5.6,12.6-12.6,12.6s-12.6-5.6-12.6-12.6s5.6-12.6,12.6-12.6
	S251.5,70,251.5,76.9"/>
<path id="Fill-29" class="st3" d="M263.6,86.5c0,5.6-4.5,10.1-10.1,10.1s-10.1-4.5-10.1-10.1s4.5-10.1,10.1-10.1
	S263.6,80.9,263.6,86.5"/>
<g id="Fill-31">
	<path id="path-4" class="st1" d="M284.7,60.8c0,4.2-3.4,7.5-7.5,7.5s-7.5-3.4-7.5-7.5s3.4-7.5,7.5-7.5S284.7,56.7,284.7,60.8"/>
	<path id="path-4-2" class="st1" d="M284.7,60.8c0,4.2-3.4,7.5-7.5,7.5s-7.5-3.4-7.5-7.5s3.4-7.5,7.5-7.5S284.7,56.7,284.7,60.8"/>
</g>
<path id="Fill-33" class="st1" d="M140.8,124.2c0,1.9-1.6,3.5-3.5,3.5s-3.5-1.6-3.5-3.5s1.6-3.5,3.5-3.5S140.8,122.2,140.8,124.2"/>
<path id="Fill-35" class="st2" d="M186.1,76.4c0,1.1-0.9,2-2,2s-2-0.9-2-2s0.9-2,2-2S186.1,75.3,186.1,76.4"/>
<path id="Fill-37" class="st3" d="M134.8,116.6c0,2.8-2.2,5-5,5s-5-2.2-5-5s2.2-5,5-5S134.8,113.9,134.8,116.6"/>
<g id="Fill-39">
	<path id="path-5" class="st1" d="M208.2,73.9c0,2.5-2,4.5-4.5,4.5s-4.5-2-4.5-4.5s2-4.5,4.5-4.5S208.2,71.4,208.2,73.9"/>
	<path id="path-5-2" class="st1" d="M208.2,73.9c0,2.5-2,4.5-4.5,4.5s-4.5-2-4.5-4.5s2-4.5,4.5-4.5S208.2,71.4,208.2,73.9"/>
</g>
<path id="Fill-41" class="st1" d="M171,31.7c0,4.7-3.8,8.6-8.6,8.6s-8.6-3.8-8.6-8.6s3.8-8.6,8.6-8.6S171,26.9,171,31.7"/>
<path id="Fill-43" class="st2" d="M145.9,88.5c0,3.9-3.1,7-7,7s-7-3.1-7-7s3.1-7,7-7S145.9,84.6,145.9,88.5"/>
<path id="Fill-45" class="st3" d="M194.2,48.2c0,5.6-4.5,10.1-10.1,10.1s-10.1-4.5-10.1-10.1s4.5-10.1,10.1-10.1
	S194.2,42.7,194.2,48.2"/>
<g id="Fill-47">
	<path id="path-6" class="st1" d="M231.4,18.6c0,3.6-2.9,6.5-6.5,6.5s-6.5-2.9-6.5-6.5s2.9-6.5,6.5-6.5S231.4,15,231.4,18.6"/>
	<path id="path-6-2" class="st1" d="M231.4,18.6c0,3.6-2.9,6.5-6.5,6.5s-6.5-2.9-6.5-6.5s2.9-6.5,6.5-6.5S231.4,15,231.4,18.6"/>
</g>
<path id="Fill-49" class="st1" d="M158.9,77.9c0,5.3-4.3,9.6-9.6,9.6s-9.6-4.3-9.6-9.6s4.3-9.6,9.6-9.6S158.9,72.6,158.9,77.9"/>
<path id="Fill-51" class="st2" d="M147.9,57.3c0,1.7-1.4,3-3,3s-3-1.3-3-3s1.4-3,3-3S147.9,55.6,147.9,57.3"/>
<path id="Fill-53" class="st3" d="M134.8,97.5c0,3.9-3.1,7-7,7s-7-3.1-7-7s3.1-7,7-7S134.8,93.6,134.8,97.5"/>
<g id="Fill-55">
	<path id="path-7" class="st1" d="M184.1,70.4c0,7.2-5.9,13.1-13.1,13.1s-13.1-5.9-13.1-13.1s5.9-13.1,13.1-13.1
		S184.1,63.2,184.1,70.4"/>
	<path id="path-7-2" class="st1" d="M184.1,70.4c0,7.2-5.9,13.1-13.1,13.1s-13.1-5.9-13.1-13.1s5.9-13.1,13.1-13.1
		S184.1,63.2,184.1,70.4"/>
</g>
<path id="Fill-57" class="st1" d="M135.8,100.5c0,11.1-9,20.1-20.1,20.1s-20.1-9-20.1-20.1s9-20.1,20.1-20.1S135.8,89.4,135.8,100.5
	"/>
<path id="Fill-59" class="st1" d="M275.7,195.6c0,13.6-11,24.6-24.6,24.6s-24.6-11-24.6-24.6s11-24.6,24.6-24.6
	S275.7,182,275.7,195.6"/>
<path id="Fill-61" class="st2" d="M127.8,86c0,3.1-2.5,5.5-5.5,5.5s-5.5-2.5-5.5-5.5s2.5-5.5,5.5-5.5S127.8,82.9,127.8,86"/>
<path id="Fill-63" class="st3" d="M141.9,72.4c0,3.9-3.1,7-7,7s-7-3.1-7-7s3.1-7,7-7S141.9,68.5,141.9,72.4"/>
<path id="Fill-65" class="st3" d="M217.3,31.7c0,6.4-5.2,11.6-11.6,11.6s-11.6-5.2-11.6-11.6s5.2-11.6,11.6-11.6
	S217.3,25.3,217.3,31.7"/>
<path id="Fill-67" class="st1" d="M241.5,198.6c0,5.3-4.3,9.6-9.6,9.6s-9.6-4.3-9.6-9.6s4.3-9.6,9.6-9.6S241.5,193.3,241.5,198.6"/>
<path id="Fill-69" class="st2" d="M175.1,62.8c0,10.8-8.8,19.6-19.6,19.6s-19.6-8.8-19.6-19.6s8.8-19.6,19.6-19.6
	S175.1,52,175.1,62.8"/>
<path id="Fill-71" class="st3" d="M102.6,71.9c0,5.8-4.7,10.6-10.6,10.6s-10.6-4.7-10.6-10.6s4.7-10.6,10.6-10.6
	S102.6,66.1,102.6,71.9"/>
<g id="Fill-73">
	<path id="path-8" class="st1" d="M143.9,64.3c0,11.7-9.5,21.1-21.1,21.1s-21.1-9.4-21.1-21.1s9.5-21.1,21.1-21.1
		S143.9,52.7,143.9,64.3"/>
	<path id="path-8-2" class="st1" d="M143.9,64.3c0,11.7-9.5,21.1-21.1,21.1s-21.1-9.4-21.1-21.1s9.5-21.1,21.1-21.1
		S143.9,52.7,143.9,64.3"/>
</g>
<path id="Fill-75" class="st1" d="M91.6,90c0,4.2-3.4,7.5-7.6,7.5s-7.6-3.4-7.6-7.5s3.4-7.5,7.6-7.5S91.6,85.8,91.6,90"/>
<path id="Fill-77" class="st2" d="M95.6,50.3c0,3.3-2.7,6-6,6s-6-2.7-6-6s2.7-6,6-6S95.6,46.9,95.6,50.3"/>
<path id="Fill-79" class="st3" d="M112.7,106.6c0,3.9-3.1,7-7,7s-7-3.1-7-7s3.2-7,7-7S112.7,102.7,112.7,106.6"/>
<g id="Fill-81">
	<path id="path-9" class="st1" d="M117.7,76.9c0,3.1-2.5,5.5-5.5,5.5s-5.5-2.5-5.5-5.5s2.5-5.5,5.5-5.5S117.7,73.9,117.7,76.9"/>
	<path id="path-9-2" class="st1" d="M117.7,76.9c0,3.1-2.5,5.5-5.5,5.5s-5.5-2.5-5.5-5.5s2.5-5.5,5.5-5.5S117.7,73.9,117.7,76.9"/>
</g>
<path id="Fill-83" class="st1" d="M206.2,68.4c0,7.8-6.3,14.1-14.1,14.1s-14.1-6.3-14.1-14.1s6.3-14.1,14.1-14.1
	S206.2,60.6,206.2,68.4"/>
<path id="Fill-85" class="st2" d="M111.7,306.7c0,2.2-1.8,4-4,4s-4-1.8-4-4s1.8-4,4-4S111.7,304.5,111.7,306.7"/>
<path id="Fill-87" class="st3" d="M67.4,127.2c0,3.1-2.5,5.5-5.5,5.5s-5.5-2.5-5.5-5.5s2.5-5.5,5.5-5.5S67.4,124.1,67.4,127.2"/>
<g id="Fill-89">
	<path id="path-10" class="st4" d="M143.9,31.2c0,3.3-2.7,6-6,6s-6-2.7-6-6s2.7-6,6-6S143.9,27.8,143.9,31.2"/>
	<path id="path-10-2" class="st5" d="M143.9,31.2c0,3.3-2.7,6-6,6s-6-2.7-6-6s2.7-6,6-6S143.9,27.8,143.9,31.2"/>
</g>
<path id="Fill-91" class="st1" d="M102.6,113.1c0,5.3-4.3,9.6-9.6,9.6s-9.6-4.3-9.6-9.6s4.3-9.6,9.6-9.6S102.6,107.8,102.6,113.1"/>
<path id="Fill-93" class="st2" d="M109.7,123.2c0,4.2-3.4,7.5-7.6,7.5s-7.6-3.4-7.6-7.5s3.4-7.5,7.6-7.5
	C106.3,115.6,109.7,119,109.7,123.2"/>
<path id="Fill-95" class="st3" d="M141.9,148.3c0,5.3-4.3,9.6-9.6,9.6s-9.6-4.3-9.6-9.6s4.3-9.6,9.6-9.6S141.9,143,141.9,148.3"/>
<g id="Fill-97">
	<path id="path-11" class="st1" d="M136.8,128.2c0,5.8-4.7,10.6-10.6,10.6s-10.6-4.7-10.6-10.6s4.7-10.6,10.6-10.6
		S136.8,122.4,136.8,128.2"/>
	<path id="path-11-2" class="st1" d="M136.8,128.2c0,5.8-4.7,10.6-10.6,10.6s-10.6-4.7-10.6-10.6s4.7-10.6,10.6-10.6
		S136.8,122.4,136.8,128.2"/>
</g>
<path id="Fill-99" class="st1" d="M105.6,148.8c0,2.8-2.2,5-5,5s-5-2.2-5-5s2.2-5,5-5S105.6,146,105.6,148.8"/>
<path id="Fill-101" class="st2" d="M280.7,221.2c0,3.3-2.7,6-6,6s-6-2.7-6-6s2.7-6,6-6S280.7,217.9,280.7,221.2"/>
<path id="Fill-103" class="st3" d="M186.1,167.4c0,13.1-10.6,23.6-23.6,23.6s-23.6-10.6-23.6-23.6s10.6-23.6,23.6-23.6
	S186.1,154.4,186.1,167.4"/>
<g id="Fill-105">
	<path id="path-12" class="st1" d="M197.2,195.1c0,5-4.1,9-9.1,9s-9.1-4-9.1-9.1s4.1-9.1,9.1-9.1S197.2,190.1,197.2,195.1"/>
	<path id="path-12-2" class="st1" d="M197.2,195.1c0,5-4.1,9-9.1,9s-9.1-4-9.1-9.1s4.1-9.1,9.1-9.1S197.2,190.1,197.2,195.1"/>
</g>
<path id="Fill-107" class="st1" d="M130.8,157.9c0,2.2-1.8,4-4,4s-4-1.8-4-4s1.8-4,4-4S130.8,155.6,130.8,157.9"/>
<path id="Fill-109" class="st2" d="M131.8,145.8c0,2.2-1.8,4-4,4s-4-1.8-4-4s1.8-4,4-4S131.8,143.6,131.8,145.8"/>
<path id="Fill-111" class="st3" d="M149.9,186c0,2.8-2.2,5-5,5s-5-2.2-5-5s2.2-5,5-5S149.9,183.2,149.9,186"/>
<g id="Fill-113">
	<path id="path-13" class="st1" d="M160,161.4c0,5.3-4.3,9.6-9.6,9.6s-9.6-4.3-9.6-9.6s4.3-9.6,9.6-9.6S160,156.1,160,161.4"/>
	<path id="path-13-2" class="st1" d="M160,161.4c0,5.3-4.3,9.6-9.6,9.6s-9.6-4.3-9.6-9.6s4.3-9.6,9.6-9.6S160,156.1,160,161.4"/>
</g>
<path id="Fill-115" class="st1" d="M253.5,160.9c0,5.6-4.5,10.1-10.1,10.1s-10.1-4.5-10.1-10.1s4.5-10.1,10.1-10.1
	S253.5,155.3,253.5,160.9"/>
<path id="Fill-117" class="st2" d="M160,141.8c0,6.7-5.4,12.1-12.1,12.1s-12.1-5.4-12.1-12.1s5.4-12.1,12.1-12.1
	S160,135.1,160,141.8"/>
<path id="Fill-119" class="st3" d="M271.6,174.4c0,3.1-2.5,5.5-5.5,5.5s-5.5-2.5-5.5-5.5s2.5-5.5,5.5-5.5S271.6,171.4,271.6,174.4"
	/>
<g id="Fill-121">
	<path id="path-14" class="st1" d="M173,144.3c0,4.7-3.8,8.6-8.6,8.6s-8.6-3.8-8.6-8.6s3.8-8.6,8.6-8.6S173,139.6,173,144.3"/>
	<path id="path-14-2" class="st1" d="M173,144.3c0,4.7-3.8,8.6-8.6,8.6s-8.6-3.8-8.6-8.6s3.8-8.6,8.6-8.6S173,139.6,173,144.3"/>
</g>
<path id="Fill-123" class="st1" d="M217.3,147.8c0,2.2-1.8,4-4,4s-4-1.8-4-4s1.8-4,4-4S217.3,145.6,217.3,147.8"/>
<path id="Fill-125" class="st2" d="M199.2,152.8c0,2.2-1.8,4-4,4s-4-1.8-4-4s1.8-4,4-4S199.2,150.6,199.2,152.8"/>
<path id="Fill-127" class="st3" d="M215.3,194.1c0,2.2-1.8,4-4,4s-4-1.8-4-4s1.8-4,4-4S215.3,191.8,215.3,194.1"/>
<g id="Fill-129">
	<path id="path-15" class="st1" d="M225.4,169.9c0,4.4-3.6,8-8.1,8s-8.1-3.6-8.1-8s3.6-8,8.1-8S225.4,165.5,225.4,169.9"/>
	<path id="path-15-2" class="st1" d="M225.4,169.9c0,4.4-3.6,8-8.1,8s-8.1-3.6-8.1-8s3.6-8,8.1-8S225.4,165.5,225.4,169.9"/>
</g>
<path id="Fill-131" class="st1" d="M325,213.2c0,9.4-7.7,17.1-17.1,17.1s-17.1-7.6-17.1-17.1s7.7-17.1,17.1-17.1
	S325,203.7,325,213.2"/>
<path id="Fill-133" class="st2" d="M211.3,155.8c0,8.9-7.2,16.1-16.1,16.1s-16.1-7.2-16.1-16.1s7.2-16.1,16.1-16.1
	S211.3,146.9,211.3,155.8"/>
<path id="Fill-135" class="st3" d="M332,242.8c0,8-6.5,14.6-14.6,14.6s-14.6-6.5-14.6-14.6s6.5-14.6,14.6-14.6S332,234.8,332,242.8"
	/>
<g id="Fill-137">
	<path id="path-16" class="st1" d="M305.8,198.1c0,11.7-9.5,21.1-21.1,21.1s-21.1-9.5-21.1-21.1S273,177,284.7,177
		S305.8,186.4,305.8,198.1"/>
	<path id="path-16-2" class="st1" d="M305.8,198.1c0,11.7-9.5,21.1-21.1,21.1s-21.1-9.5-21.1-21.1S273,177,284.7,177
		S305.8,186.4,305.8,198.1"/>
</g>
<path id="Fill-139" class="st2" d="M279.7,170.9c0,6.7-5.4,12.1-12.1,12.1s-12.1-5.4-12.1-12.1s5.4-12.1,12.1-12.1
	S279.7,164.3,279.7,170.9"/>
<path id="Fill-141" class="st2" d="M238.4,154.8c0,5.6-4.5,10.1-10.1,10.1s-10.1-4.5-10.1-10.1s4.5-10.1,10.1-10.1
	S238.4,149.3,238.4,154.8"/>
<path id="Fill-143" class="st3" d="M186.1,145.3c0,4.2-3.4,7.5-7.6,7.5s-7.6-3.4-7.6-7.5s3.4-7.5,7.6-7.5S186.1,141.1,186.1,145.3"
	/>
<g id="Fill-145">
	<path id="path-17" class="st1" d="M264.6,171.9c0,5.6-4.5,10.1-10.1,10.1s-10.1-4.5-10.1-10.1s4.5-10.1,10.1-10.1
		S264.6,166.4,264.6,171.9"/>
	<path id="path-17-2" class="st1" d="M264.6,171.9c0,5.6-4.5,10.1-10.1,10.1s-10.1-4.5-10.1-10.1s4.5-10.1,10.1-10.1
		S264.6,166.4,264.6,171.9"/>
</g>
<path id="Fill-147" class="st1" d="M271.6,225.7c0,4.7-3.8,8.5-8.5,8.5s-8.5-3.8-8.5-8.5s3.8-8.5,8.5-8.5S271.6,221,271.6,225.7"/>
<path id="Fill-149" class="st2" d="M260.6,189.5c0,2.5-2,4.5-4.5,4.5s-4.5-2-4.5-4.5s2-4.5,4.5-4.5S260.6,187,260.6,189.5"/>
<path id="Fill-151" class="st3" d="M312.9,194.6c0,3.1-2.5,5.5-5.5,5.5s-5.5-2.5-5.5-5.5s2.5-5.5,5.5-5.5S312.9,191.5,312.9,194.6"
	/>
<path id="Fill-153" class="st1" d="M243.5,72.9c0,6.4-5.2,11.6-11.6,11.6s-11.6-5.2-11.6-11.6s5.2-11.6,11.6-11.6
	S243.5,66.5,243.5,72.9"/>
<path id="Fill-155" class="st1" d="M232.4,309.2c0,4.2-3.4,7.5-7.6,7.5s-7.6-3.4-7.6-7.5s3.4-7.5,7.6-7.5S232.4,305,232.4,309.2"/>
<path id="Fill-157" class="st2" d="M289.7,303.2c0,3-2.5,5.5-5.5,5.5s-5.5-2.5-5.5-5.5s2.5-5.5,5.5-5.5S289.7,300.1,289.7,303.2"/>
<path id="Fill-159" class="st3" d="M268.6,284.1c0,3.6-2.9,6.5-6.5,6.5s-6.5-2.9-6.5-6.5s2.9-6.5,6.5-6.5S268.6,280.4,268.6,284.1"
	/>
<g id="Fill-161">
	<path id="path-18" class="st1" d="M284.7,255.4c0,5-4,9-9,9s-9-4-9-9s4-9,9-9S284.7,250.4,284.7,255.4"/>
	<path id="path-18-2" class="st1" d="M284.7,255.4c0,5-4,9-9,9s-9-4-9-9s4-9,9-9S284.7,250.4,284.7,255.4"/>
</g>
<path id="Fill-163" class="st1" d="M303.8,289.6c0,4.4-3.6,8-8,8s-8-3.6-8-8s3.6-8,8-8S303.8,285.1,303.8,289.6"/>
<path id="Fill-165" class="st2" d="M302.8,248.4c0,2.8-2.2,5-5,5s-5-2.2-5-5s2.2-5,5-5S302.8,245.6,302.8,248.4"/>
<path id="Fill-167" class="st3" d="M314.9,305.7c0,3.9-3.1,7-7,7s-7-3.1-7-7s3.1-7,7-7S314.9,301.8,314.9,305.7"/>
<g id="Fill-169">
	<path id="path-19" class="st1" d="M332,266.5c0,7.2-5.9,13.1-13.1,13.1s-13.1-5.9-13.1-13.1s5.9-13.1,13.1-13.1
		S332,259.2,332,266.5"/>
	<path id="path-19-2" class="st1" d="M332,266.5c0,7.2-5.9,13.1-13.1,13.1s-13.1-5.9-13.1-13.1s5.9-13.1,13.1-13.1
		S332,259.2,332,266.5"/>
</g>
<path id="Fill-171" class="st1" d="M296.8,326.8c0,3.3-2.7,6-6,6s-6-2.7-6-6s2.7-6,6-6S296.8,323.5,296.8,326.8"/>
<path id="Fill-173" class="st2" d="M324,288.6c0,8.9-7.2,16.1-16.1,16.1s-16.1-7.2-16.1-16.1s7.2-16.1,16.1-16.1
	S324,279.7,324,288.6"/>
<path id="Fill-175" class="st3" d="M279.7,312.2c0,5.8-4.7,10.6-10.6,10.6s-10.6-4.7-10.6-10.6s4.7-10.6,10.6-10.6
	S279.7,306.4,279.7,312.2"/>
<g id="Fill-177">
	<path id="path-20" class="st1" d="M306.9,313.2c0,4.7-3.8,8.5-8.5,8.5s-8.5-3.8-8.5-8.5s3.8-8.5,8.5-8.5S306.9,308.5,306.9,313.2"
		/>
	<path id="path-20-2" class="st1" d="M306.9,313.2c0,4.7-3.8,8.5-8.5,8.5s-8.5-3.8-8.5-8.5s3.8-8.5,8.5-8.5S306.9,308.5,306.9,313.2
		"/>
</g>
<path id="Fill-179" class="st2" d="M207.2,309.2c0,3.6-2.9,6.5-6.5,6.5s-6.5-2.9-6.5-6.5s2.9-6.5,6.5-6.5S207.2,305.6,207.2,309.2"
	/>
<path id="Fill-181" class="st3" d="M242.5,340.4c0,7.5-6.1,13.6-13.6,13.6s-13.6-6.1-13.6-13.6s6.1-13.6,13.6-13.6
	S242.5,332.9,242.5,340.4"/>
<g id="Fill-183">
	<path id="path-21" class="st1" d="M257.5,301.1c0,3.6-2.9,6.5-6.5,6.5s-6.5-2.9-6.5-6.5s2.9-6.5,6.5-6.5S257.5,297.5,257.5,301.1"
		/>
	<path id="path-21-2" class="st1" d="M257.5,301.1c0,3.6-2.9,6.5-6.5,6.5s-6.5-2.9-6.5-6.5s2.9-6.5,6.5-6.5S257.5,297.5,257.5,301.1
		"/>
</g>
<path id="Fill-185" class="st1" d="M212.3,343.4c0,5.8-4.7,10.6-10.6,10.6s-10.6-4.7-10.6-10.6s4.7-10.6,10.6-10.6
	S212.3,337.6,212.3,343.4"/>
<path id="Fill-187" class="st2" d="M239.4,321.3c0,1.9-1.6,3.5-3.5,3.5s-3.5-1.6-3.5-3.5s1.6-3.5,3.5-3.5S239.4,319.3,239.4,321.3"
	/>
<path id="Fill-189" class="st2" d="M260.6,344.9c0,6.1-5,11.1-11.1,11.1s-11.1-5-11.1-11.1s5-11.1,11.1-11.1
	S260.6,338.8,260.6,344.9"/>
<g id="Fill-191">
	<path id="path-22" class="st1" d="M276.7,333.3c0,7.5-6.1,13.6-13.6,13.6s-13.6-6.1-13.6-13.6s6.1-13.6,13.6-13.6
		S276.7,325.8,276.7,333.3"/>
	<path id="path-22-2" class="st1" d="M276.7,333.3c0,7.5-6.1,13.6-13.6,13.6s-13.6-6.1-13.6-13.6s6.1-13.6,13.6-13.6
		S276.7,325.8,276.7,333.3"/>
</g>
<path id="Fill-193" class="st1" d="M183.1,329.8c0,3.9-3.1,7-7,7s-7-3.1-7-7s3.1-7,7-7S183.1,325.9,183.1,329.8"/>
<path id="Fill-195" class="st2" d="M131.8,340.4c0,2.5-2,4.5-4.5,4.5s-4.5-2-4.5-4.5s2-4.5,4.5-4.5S131.8,337.9,131.8,340.4"/>
<path id="Fill-197" class="st1" d="M182.1,356.5c0,4.2-3.4,7.5-7.6,7.5s-7.6-3.4-7.6-7.5s3.4-7.5,7.6-7.5S182.1,352.3,182.1,356.5"
	/>
<path id="Fill-199" class="st2" d="M192.2,344.9c0,6.1-4.9,11.1-11.1,11.1s-11.1-5-11.1-11.1s4.9-11.1,11.1-11.1
	S192.2,338.8,192.2,344.9"/>
<path id="Fill-201" class="st3" d="M199.2,357.5c0,3.6-2.9,6.5-6.5,6.5s-6.5-2.9-6.5-6.5s2.9-6.5,6.5-6.5S199.2,353.8,199.2,357.5"
	/>
<g id="Fill-204">
	<path id="path-23" class="st1" d="M216.3,351.4c0,4.2-3.4,7.5-7.6,7.5s-7.6-3.4-7.6-7.5s3.4-7.5,7.6-7.5S216.3,347.3,216.3,351.4"
		/>
	<path id="path-23-2" class="st1" d="M216.3,351.4c0,4.2-3.4,7.5-7.6,7.5s-7.6-3.4-7.6-7.5s3.4-7.5,7.6-7.5S216.3,347.3,216.3,351.4
		"/>
</g>
<path id="Fill-206" class="st1" d="M143.9,351.4c0,4.7-3.8,8.5-8.6,8.5s-8.6-3.8-8.6-8.5s3.8-8.5,8.6-8.5S143.9,346.7,143.9,351.4"
	/>
<path id="Fill-208" class="st2" d="M132.8,322.3c0,3.6-2.9,6.5-6.5,6.5s-6.5-2.9-6.5-6.5s2.9-6.5,6.5-6.5S132.8,318.7,132.8,322.3"
	/>
<path id="Fill-210" class="st3" d="M165,302.2c0,5.8-4.7,10.6-10.6,10.6s-10.6-4.7-10.6-10.6s4.7-10.6,10.6-10.6
	S165,296.3,165,302.2"/>
<g id="Fill-212">
	<path id="path-24" class="st1" d="M161,332.3c0,4.2-3.4,7.5-7.6,7.5s-7.6-3.4-7.6-7.5s3.4-7.5,7.6-7.5S161,328.2,161,332.3"/>
	<path id="path-24-2" class="st1" d="M161,332.3c0,4.2-3.4,7.5-7.6,7.5s-7.6-3.4-7.6-7.5s3.4-7.5,7.6-7.5S161,328.2,161,332.3"/>
</g>
<path id="Fill-214" class="st1" d="M142.9,314.2c0,15.3-12.4,27.6-27.7,27.6s-27.7-12.4-27.7-27.6s12.4-27.6,27.7-27.6
	S142.9,299,142.9,314.2"/>
<path id="Fill-216" class="st2" d="M178.1,313.2c0,1.9-1.6,3.5-3.5,3.5s-3.5-1.6-3.5-3.5s1.6-3.5,3.5-3.5S178.1,311.3,178.1,313.2"
	/>
<path id="Fill-218" class="st3" d="M174.1,343.9c0,8.9-7.2,16.1-16.1,16.1s-16.1-7.2-16.1-16.1s7.2-16.1,16.1-16.1
	S174.1,335,174.1,343.9"/>
<path id="Fill-220" class="st3" d="M162,25.6c0,11.9-9.7,21.6-21.6,21.6s-21.6-9.7-21.6-21.6S128.4,4,140.3,4S162,13.7,162,25.6"/>
<path id="Fill-222" class="st3" d="M126.8,21.1c0,5-4.1,9.1-9.1,9.1s-9.1-4.1-9.1-9.1s4.1-9.1,9.1-9.1S126.8,16.1,126.8,21.1"/>
<path id="Fill-224" class="st3" d="M86.5,302.7c0,9.4-7.7,17.1-17.1,17.1s-17.1-7.6-17.1-17.1s7.7-17.1,17.1-17.1
	S86.5,293.2,86.5,302.7"/>
<path id="Fill-226" class="st1" d="M290.8,329.8c0,3.3-2.7,6-6,6s-6-2.7-6-6s2.7-6,6-6S290.8,326.5,290.8,329.8"/>
<path id="Fill-228" class="st1" d="M92.6,333.8c0,4.4-3.6,8-8.1,8s-8.1-3.6-8.1-8s3.6-8,8.1-8S92.6,329.4,92.6,333.8"/>
<path id="Fill-230" class="st2" d="M60.4,317.2c0,2.5-2,4.5-4.5,4.5s-4.5-2-4.5-4.5s2-4.5,4.5-4.5S60.4,314.7,60.4,317.2"/>
<path id="Fill-232" class="st3" d="M104.6,343.9c0,2.8-2.2,5-5,5s-5-2.2-5-5s2.2-5,5-5S104.6,341.1,104.6,343.9"/>
<g id="Fill-234">
	<path id="path-25" class="st1" d="M73.4,325.3c0,3-2.5,5.5-5.5,5.5s-5.5-2.5-5.5-5.5s2.5-5.5,5.5-5.5S73.4,322.2,73.4,325.3"/>
	<path id="path-25-2" class="st1" d="M73.4,325.3c0,3-2.5,5.5-5.5,5.5s-5.5-2.5-5.5-5.5s2.5-5.5,5.5-5.5S73.4,322.2,73.4,325.3"/>
</g>
<path id="Fill-236" class="st1" d="M54.3,306.2c0,4.7-3.8,8.5-8.6,8.5s-8.6-3.8-8.6-8.5s3.8-8.5,8.6-8.5S54.3,301.5,54.3,306.2"/>
<path id="Fill-238" class="st2" d="M59.3,291.1c0,2.5-2,4.5-4.5,4.5s-4.5-2-4.5-4.5s2-4.5,4.5-4.5S59.3,288.6,59.3,291.1"/>
<path id="Fill-240" class="st3" d="M128.8,347.4c0,5.8-4.7,10.6-10.6,10.6s-10.6-4.7-10.6-10.6s4.7-10.6,10.6-10.6
	S128.8,341.6,128.8,347.4"/>
<path id="Fill-242" class="st1" d="M121.7,341.9c0,6.7-5.4,12.1-12.1,12.1s-12.1-5.4-12.1-12.1s5.4-12.1,12.1-12.1
	S121.7,335.2,121.7,341.9"/>
<g id="Fill-244">
	<path id="path-26" class="st1" d="M102.6,309.7c0,8.3-6.8,15.1-15.1,15.1s-15.1-6.8-15.1-15.1s6.8-15.1,15.1-15.1
		S102.6,301.4,102.6,309.7"/>
	<path id="path-26-2" class="st1" d="M102.6,309.7c0,8.3-6.8,15.1-15.1,15.1s-15.1-6.8-15.1-15.1s6.8-15.1,15.1-15.1
		S102.6,301.4,102.6,309.7"/>
</g>
<path id="Fill-246" class="st1" d="M268.6,255.9c0,4.2-3.4,7.5-7.5,7.5s-7.5-3.4-7.5-7.5s3.4-7.5,7.5-7.5S268.6,251.7,268.6,255.9"
	/>
<path id="Fill-248" class="st2" d="M78.5,60.8c0,5.3-4.3,9.6-9.6,9.6s-9.6-4.3-9.6-9.6s4.3-9.6,9.6-9.6S78.5,55.5,78.5,60.8"/>
<path id="Fill-250" class="st3" d="M66.4,96c0,3.6-2.9,6.5-6.5,6.5s-6.5-2.9-6.5-6.5s2.9-6.5,6.5-6.5S66.4,92.4,66.4,96"/>
<g id="Fill-252">
	<path id="path-27" class="st1" d="M264.6,67.3c0,5-4,9-9,9s-9-4.1-9-9.1s4-9.1,9-9.1S264.6,62.3,264.6,67.3"/>
	<path id="path-27-2" class="st1" d="M264.6,67.3c0,5-4,9-9,9s-9-4.1-9-9.1s4-9.1,9-9.1S264.6,62.3,264.6,67.3"/>
</g>
<path id="Fill-254" class="st1" d="M47.3,90.5c0,3.9-3.2,7-7,7s-7-3.1-7-7s3.2-7,7-7S47.3,86.6,47.3,90.5"/>
<path id="Fill-256" class="st2" d="M73.4,30.7c0,1.9-1.6,3.5-3.5,3.5s-3.5-1.6-3.5-3.5s1.6-3.5,3.5-3.5S73.4,28.7,73.4,30.7"/>
<path id="Fill-258" class="st3" d="M208.2,324.3c0,5.3-4.3,9.5-9.6,9.5s-9.6-4.3-9.6-9.5s4.3-9.5,9.6-9.5S208.2,319,208.2,324.3"/>
<g id="Fill-260">
	<path id="path-28" class="st1" d="M52.3,71.4c0,2.8-2.2,5-5,5s-5-2.2-5-5s2.2-5,5-5S52.3,68.6,52.3,71.4"/>
	<path id="path-28-2" class="st1" d="M52.3,71.4c0,2.8-2.2,5-5,5s-5-2.2-5-5s2.2-5,5-5S52.3,68.6,52.3,71.4"/>
</g>
<path id="Fill-262" class="st1" d="M276.7,41.2c0,6.1-5,11.1-11.1,11.1s-11.1-4.9-11.1-11.1s5-11.1,11.1-11.1S276.7,35.1,276.7,41.2
	"/>
<path id="Fill-264" class="st2" d="M112.7,292.6c0,5-4.1,9-9.1,9s-9.1-4-9.1-9s4.1-9,9.1-9S112.7,287.6,112.7,292.6"/>
<path id="Fill-266" class="st3" d="M100.6,262.4c0,5.5-4.5,10.1-10.1,10.1s-10.1-4.5-10.1-10.1s4.5-10.1,10.1-10.1
	S100.6,256.9,100.6,262.4"/>
<g id="Fill-268">
	<path id="path-29" class="st1" d="M198.2,20.6c0,9.2-7.4,16.6-16.6,16.6S165,29.7,165,20.6S172.4,4,181.6,4S198.2,11.4,198.2,20.6"
		/>
	<path id="path-29-2" class="st1" d="M198.2,20.6c0,9.2-7.4,16.6-16.6,16.6S165,29.7,165,20.6S172.4,4,181.6,4
		S198.2,11.4,198.2,20.6"/>
</g>
<g id="Fill-271">
	<path id="path-30" class="st1" d="M299.8,43.7c0,9.2-7.4,16.6-16.6,16.6s-16.6-7.4-16.6-16.6s7.4-16.6,16.6-16.6
		S299.8,34.6,299.8,43.7"/>
	<path id="path-30-2" class="st1" d="M299.8,43.7c0,9.2-7.4,16.6-16.6,16.6s-16.6-7.4-16.6-16.6s7.4-16.6,16.6-16.6
		S299.8,34.6,299.8,43.7"/>
</g>
<path id="Fill-273" class="st1" d="M249.5,279c0,6.4-5.2,11.6-11.6,11.6s-11.6-5.2-11.6-11.6s5.2-11.6,11.6-11.6
	S249.5,272.6,249.5,279"/>
<path id="Fill-275" class="st2" d="M92.6,106.6c0,5-4.1,9.1-9.1,9.1s-9.1-4.1-9.1-9.1s4.1-9.1,9.1-9.1S92.6,101.6,92.6,106.6"/>
<path id="Fill-277" class="st3" d="M191.1,168.9c0,5.6-4.5,10.1-10.1,10.1s-10.1-4.5-10.1-10.1s4.5-10.1,10.1-10.1
	S191.1,163.4,191.1,168.9"/>
<g id="Fill-279">
	<path id="path-31" class="st1" d="M124.8,137.7c0,7.8-6.3,14.1-14.1,14.1s-14.1-6.3-14.1-14.1s6.3-14.1,14.1-14.1
		S124.8,130,124.8,137.7"/>
	<path id="path-31-2" class="st1" d="M124.8,137.7c0,7.8-6.3,14.1-14.1,14.1s-14.1-6.3-14.1-14.1s6.3-14.1,14.1-14.1
		S124.8,130,124.8,137.7"/>
</g>
<path id="Fill-281" class="st1" d="M16.1,84.9c0,1.9-1.6,3.5-3.5,3.5S9,86.9,9,84.9s1.6-3.5,3.5-3.5S16.1,83,16.1,84.9"/>
<path id="Fill-283" class="st2" d="M76.5,143.3c0,1.4-1.1,2.5-2.5,2.5s-2.5-1.1-2.5-2.5s1.1-2.5,2.5-2.5S76.5,141.9,76.5,143.3"/>
<path id="Fill-285" class="st3" d="M65.4,171.9c0,1.7-1.3,3-3,3s-3-1.4-3-3s1.3-3,3-3S65.4,170.3,65.4,171.9"/>
<g id="Fill-287">
	<path id="path-32" class="st1" d="M95.6,162.9c0,2.2-1.8,4-4,4s-4-1.8-4-4s1.8-4,4-4S95.6,160.7,95.6,162.9"/>
	<path id="path-32-2" class="st1" d="M95.6,162.9c0,2.2-1.8,4-4,4s-4-1.8-4-4s1.8-4,4-4S95.6,160.7,95.6,162.9"/>
</g>
<path id="Fill-289" class="st1" d="M35.2,50.3c0,1.7-1.3,3-3,3s-3-1.3-3-3s1.3-3,3-3S35.2,48.6,35.2,50.3"/>
<path id="Fill-291" class="st2" d="M56.3,148.3c0,3.1-2.5,5.5-5.5,5.5s-5.5-2.5-5.5-5.5s2.5-5.5,5.5-5.5S56.3,145.2,56.3,148.3"/>
<path id="Fill-293" class="st3" d="M17.1,120.1c0,1.4-1.1,2.5-2.5,2.5s-2.5-1.1-2.5-2.5s1.1-2.5,2.5-2.5S17.1,118.8,17.1,120.1"/>
<g id="Fill-295">
	<path id="path-33" class="st1" d="M115.7,31.7c0,1.9-1.6,3.5-3.5,3.5s-3.5-1.6-3.5-3.5s1.6-3.5,3.5-3.5S115.7,29.7,115.7,31.7"/>
	<path id="path-33-2" class="st1" d="M115.7,31.7c0,1.9-1.6,3.5-3.5,3.5s-3.5-1.6-3.5-3.5s1.6-3.5,3.5-3.5S115.7,29.7,115.7,31.7"/>
</g>
<path id="Fill-297" class="st1" d="M90.5,33.7c0,1.9-1.6,3.5-3.5,3.5s-3.5-1.6-3.5-3.5s1.6-3.5,3.5-3.5S90.5,31.7,90.5,33.7"/>
<path id="Fill-299" class="st2" d="M66.4,160.9c0,1.7-1.3,3-3,3s-3-1.4-3-3s1.3-3,3-3S66.4,159.2,66.4,160.9"/>
<path id="Fill-301" class="st3" d="M198.2,234.3c0,1.7-1.4,3-3,3s-3-1.4-3-3s1.4-3,3-3S198.2,232.6,198.2,234.3"/>
<g id="Fill-303">
	<path id="path-34" class="st1" d="M202.2,8.5c0,2.5-2,4.5-4.5,4.5s-4.5-2-4.5-4.5s2-4.5,4.5-4.5S202.2,6,202.2,8.5"/>
	<path id="path-34-2" class="st1" d="M202.2,8.5c0,2.5-2,4.5-4.5,4.5s-4.5-2-4.5-4.5s2-4.5,4.5-4.5S202.2,6,202.2,8.5"/>
</g>
<path id="Fill-305" class="st1" d="M294.8,289.6c0,9.4-7.7,17.1-17.1,17.1s-17.1-7.6-17.1-17.1s7.7-17.1,17.1-17.1
	S294.8,280.1,294.8,289.6"/>
<path id="Fill-307" class="st2" d="M224.4,183.5c0,7.5-6.1,13.6-13.6,13.6s-13.6-6.1-13.6-13.6s6.1-13.6,13.6-13.6
	S224.4,176,224.4,183.5"/>
<path id="Fill-309" class="st3" d="M286.7,271.5c0,8.3-6.8,15.1-15.1,15.1s-15.1-6.8-15.1-15.1s6.8-15.1,15.1-15.1
	S286.7,263.2,286.7,271.5"/>
<g id="Fill-311">
	<path id="path-35" class="st1" d="M314.9,245.8c0,11.4-9.2,20.6-20.6,20.6s-20.6-9.2-20.6-20.6s9.2-20.6,20.6-20.6
		S314.9,234.5,314.9,245.8"/>
	<path id="path-35-2" class="st1" d="M314.9,245.8c0,11.4-9.2,20.6-20.6,20.6s-20.6-9.2-20.6-20.6s9.2-20.6,20.6-20.6
		S314.9,234.5,314.9,245.8"/>
</g>
<path id="Fill-313" class="st1" d="M70.4,252.9c0,1.4-1.1,2.5-2.5,2.5s-2.5-1.1-2.5-2.5s1.1-2.5,2.5-2.5S70.4,251.5,70.4,252.9"/>
<path id="Fill-315" class="st2" d="M82.5,184c0,1.1-0.9,2-2,2s-2-0.9-2-2s0.9-2,2-2S82.5,182.9,82.5,184"/>
<path id="Fill-317" class="st3" d="M74.4,255.9c0,1.4-1.1,2.5-2.5,2.5s-2.5-1.1-2.5-2.5s1.1-2.5,2.5-2.5S74.4,254.5,74.4,255.9"/>
<g id="Fill-319">
	<path id="path-36" class="st1" d="M101.6,190c0,1.7-1.4,3-3,3s-3-1.4-3-3s1.3-3,3-3C100.3,187,101.6,188.4,101.6,190"/>
	<path id="path-36-2" class="st1" d="M101.6,190c0,1.7-1.4,3-3,3s-3-1.4-3-3s1.3-3,3-3C100.3,187,101.6,188.4,101.6,190"/>
</g>
<path id="Fill-321" class="st1" d="M163,56.3c0,8.3-6.8,15.1-15.1,15.1s-15.1-6.8-15.1-15.1s6.8-15.1,15.1-15.1S163,48,163,56.3"/>
<path id="Fill-323" class="st2" d="M178.1,199.1c0,6.7-5.4,12.1-12.1,12.1s-12.1-5.4-12.1-12.1S159.3,187,166,187
	S178.1,192.4,178.1,199.1"/>
<path id="Fill-325" class="st3" d="M259.6,229.8c0,7.5-6.1,13.6-13.6,13.6s-13.6-6.1-13.6-13.6s6.1-13.6,13.6-13.6
	S259.6,222.2,259.6,229.8"/>
<g id="Fill-327">
	<path id="path-37" class="st1" d="M259.6,316.2c0,10.3-8.3,18.6-18.6,18.6s-18.6-8.3-18.6-18.6s8.3-18.6,18.6-18.6
		S259.6,306,259.6,316.2"/>
	<path id="path-37-2" class="st1" d="M259.6,316.2c0,10.3-8.3,18.6-18.6,18.6s-18.6-8.3-18.6-18.6s8.3-18.6,18.6-18.6
		S259.6,306,259.6,316.2"/>
</g>
<path id="Fill-329" class="st1" d="M127.8,337.4c0,3.6-2.9,6.5-6.5,6.5s-6.5-2.9-6.5-6.5s2.9-6.5,6.5-6.5S127.8,333.7,127.8,337.4"
	/>
<path id="Fill-331" class="st2" d="M9,283c0,1.9-1.6,3.5-3.5,3.5S2,285,2,283s1.6-3.5,3.5-3.5S9,281.1,9,283"/>
<path id="Fill-333" class="st3" d="M29.2,281.5c0,3.3-2.7,6-6,6s-6-2.7-6-6s2.7-6,6-6S29.2,278.2,29.2,281.5"/>
<g id="Fill-335">
	<path id="path-38" class="st1" d="M132.8,190c0,4.4-3.6,8-8.1,8s-8.1-3.6-8.1-8s3.6-8,8.1-8S132.8,185.6,132.8,190"/>
	<path id="path-38-2" class="st1" d="M132.8,190c0,4.4-3.6,8-8.1,8s-8.1-3.6-8.1-8s3.6-8,8.1-8S132.8,185.6,132.8,190"/>
</g>
<path id="Fill-337" class="st1" d="M71.4,279c0,3-2.5,5.5-5.5,5.5s-5.5-2.5-5.5-5.5s2.5-5.5,5.5-5.5S71.4,276,71.4,279"/>
<path id="Fill-339" class="st2" d="M97.6,277.5c0,7.8-6.3,14.1-14.1,14.1s-14.1-6.3-14.1-14.1s6.3-14.1,14.1-14.1
	S97.6,269.7,97.6,277.5"/>
<path id="Fill-341" class="st3" d="M55.3,260.4c0,2.8-2.2,5-5,5s-5-2.2-5-5s2.2-5,5-5S55.3,257.6,55.3,260.4"/>
<g id="Fill-343">
	<path id="path-39" class="st1" d="M119.7,178.5c0,3.6-2.9,6.5-6.5,6.5s-6.5-2.9-6.5-6.5s2.9-6.5,6.5-6.5S119.7,174.9,119.7,178.5"
		/>
	<path id="path-39-2" class="st1" d="M119.7,178.5c0,3.6-2.9,6.5-6.5,6.5s-6.5-2.9-6.5-6.5s2.9-6.5,6.5-6.5S119.7,174.9,119.7,178.5
		"/>
</g>
<path id="Fill-345" class="st1" d="M224.4,217.7c0,3.6-2.9,6.5-6.5,6.5s-6.5-2.9-6.5-6.5s2.9-6.5,6.5-6.5S224.4,214.1,224.4,217.7"
	/>
<path id="Fill-347" class="st2" d="M48.3,114.6c0,4.4-3.6,8-8.1,8s-8-3.6-8-8s3.6-8,8-8S48.3,110.2,48.3,114.6"/>
<path id="Fill-349" class="st3" d="M218.3,283c0,3-2.5,5.5-5.5,5.5s-5.5-2.5-5.5-5.5s2.5-5.5,5.5-5.5S218.3,280,218.3,283"/>
<g id="Fill-351">
	<path id="path-40" class="st1" d="M113.7,270.5c0,4.4-3.6,8-8.1,8s-8.1-3.6-8.1-8s3.6-8,8.1-8S113.7,266,113.7,270.5"/>
	<path id="path-40-2" class="st1" d="M113.7,270.5c0,4.4-3.6,8-8.1,8s-8.1-3.6-8.1-8s3.6-8,8.1-8S113.7,266,113.7,270.5"/>
</g>
<rect id="Rectangle" x="-28" y="-56" class="st6" width="1260" height="480"/>
</svg>
